<?xml version="1.0" encoding="UTF-8" standalone="no"?>
<!DOCTYPE svg PUBLIC "-//W3C//DTD SVG 1.1//EN"
 "http://www.w3.org/Graphics/SVG/1.1/DTD/svg11.dtd">
<!-- Generated by graphviz version 3.0.0 (20220226.1711)
 -->
<!-- Pages: 1 -->
<svg width="155pt" height="402pt"
 viewBox="0.00 0.00 155.00 402.00" xmlns="http://www.w3.org/2000/svg" xmlns:xlink="http://www.w3.org/1999/xlink">
<g id="graph0" class="graph" transform="scale(1 1) rotate(0) translate(4 398)">
<polygon fill="white" stroke="transparent" points="-4,4 -4,-398 151,-398 151,4 -4,4"/>
<!-- fake -->
<g id="node1" class="node">
<title>fake</title>
</g>
<!-- S -->
<g id="node4" class="node">
<title>S</title>
<ellipse fill="none" stroke="black" cx="46" cy="-299" rx="18" ry="18"/>
<ellipse fill="none" stroke="black" cx="46" cy="-299" rx="22" ry="22"/>
<text text-anchor="middle" x="46" y="-295.3" font-family="Times,serif" font-size="14.00">S</text>
</g>
<!-- fake&#45;&gt;S -->
<g id="edge1" class="edge">
<title>fake&#45;&gt;S</title>
<path fill="none" stroke="black" stroke-width="2" d="M46,-357.98C46,-350.15 46,-340.61 46,-331.54"/>
<polygon fill="black" stroke="black" stroke-width="2" points="49.5,-331.24 46,-321.24 42.5,-331.24 49.5,-331.24"/>
</g>
<!-- D -->
<g id="node2" class="node">
<title>D</title>
<ellipse fill="none" stroke="black" cx="84" cy="-22" rx="18" ry="18"/>
<ellipse fill="none" stroke="black" cx="84" cy="-22" rx="22" ry="22"/>
<text text-anchor="middle" x="84" y="-18.3" font-family="Times,serif" font-size="14.00">D</text>
</g>
<!-- B -->
<g id="node5" class="node">
<title>B</title>
<ellipse fill="none" stroke="black" cx="89" cy="-204" rx="27" ry="18"/>
<text text-anchor="middle" x="89" y="-200.3" font-family="Times,serif" font-size="14.00">B</text>
</g>
<!-- D&#45;&gt;B -->
<g id="edge3" class="edge">
<title>D&#45;&gt;B</title>
<path fill="none" stroke="black" d="M80.79,-44.12C77.92,-65.91 74.5,-100.85 77,-131 78.24,-145.95 80.9,-162.46 83.4,-175.9"/>
<polygon fill="black" stroke="black" points="80,-176.78 85.34,-185.93 86.87,-175.45 80,-176.78"/>
<text text-anchor="middle" x="80.5" y="-109.3" font-family="Times,serif" font-size="14.00">b</text>
</g>
<!-- A -->
<g id="node3" class="node">
<title>A</title>
<ellipse fill="none" stroke="black" cx="22" cy="-204" rx="18" ry="18"/>
<ellipse fill="none" stroke="black" cx="22" cy="-204" rx="22" ry="22"/>
<text text-anchor="middle" x="22" y="-200.3" font-family="Times,serif" font-size="14.00">A</text>
</g>
<!-- S&#45;&gt;A -->
<g id="edge6" class="edge">
<title>S&#45;&gt;A</title>
<path fill="none" stroke="black" d="M40.67,-277.36C37.5,-265.08 33.42,-249.27 29.89,-235.56"/>
<polygon fill="black" stroke="black" points="33.2,-234.39 27.31,-225.58 26.42,-236.14 33.2,-234.39"/>
<text text-anchor="middle" x="39.5" y="-247.8" font-family="Times,serif" font-size="14.00">a</text>
</g>
<!-- S&#45;&gt;B -->
<g id="edge2" class="edge">
<title>S&#45;&gt;B</title>
<path fill="none" stroke="black" d="M54.91,-278.73C61.33,-264.85 70.05,-245.98 77.07,-230.8"/>
<polygon fill="black" stroke="black" points="80.38,-231.99 81.4,-221.45 74.02,-229.06 80.38,-231.99"/>
<text text-anchor="middle" x="73.5" y="-247.8" font-family="Times,serif" font-size="14.00">b</text>
</g>
<!-- C -->
<g id="node6" class="node">
<title>C</title>
<ellipse fill="none" stroke="black" cx="120" cy="-113" rx="27" ry="18"/>
<text text-anchor="middle" x="120" y="-109.3" font-family="Times,serif" font-size="14.00">C</text>
</g>
<!-- B&#45;&gt;C -->
<g id="edge5" class="edge">
<title>B&#45;&gt;C</title>
<path fill="none" stroke="black" d="M94.83,-186.26C99.33,-173.33 105.65,-155.2 110.83,-140.33"/>
<polygon fill="black" stroke="black" points="114.21,-141.26 114.2,-130.67 107.6,-138.96 114.21,-141.26"/>
<text text-anchor="middle" x="110.5" y="-152.8" font-family="Times,serif" font-size="14.00">a</text>
</g>
<!-- C&#45;&gt;D -->
<g id="edge4" class="edge">
<title>C&#45;&gt;D</title>
<path fill="none" stroke="black" d="M113.23,-95.26C108.33,-83.15 101.58,-66.47 95.81,-52.19"/>
<polygon fill="black" stroke="black" points="98.99,-50.73 92,-42.77 92.5,-53.36 98.99,-50.73"/>
<text text-anchor="middle" x="108.5" y="-65.8" font-family="Times,serif" font-size="14.00">b</text>
</g>
</g>
</svg>
