<?xml version="1.0" encoding="UTF-8" standalone="no"?>
<!DOCTYPE svg PUBLIC "-//W3C//DTD SVG 1.1//EN"
 "http://www.w3.org/Graphics/SVG/1.1/DTD/svg11.dtd">
<!-- Generated by graphviz version 3.0.0 (20220226.1711)
 -->
<!-- Pages: 1 -->
<svg width="237pt" height="998pt"
 viewBox="0.00 0.00 237.00 998.00" xmlns="http://www.w3.org/2000/svg" xmlns:xlink="http://www.w3.org/1999/xlink">
<g id="graph0" class="graph" transform="scale(1 1) rotate(0) translate(4 994)">
<polygon fill="white" stroke="transparent" points="-4,4 -4,-994 233,-994 233,4 -4,4"/>
<!-- fake -->
<g id="node1" class="node">
<title>fake</title>
</g>
<!-- 7 -->
<g id="node12" class="node">
<title>7</title>
<ellipse fill="none" stroke="black" cx="71" cy="-899" rx="27" ry="18"/>
<text text-anchor="middle" x="71" y="-895.3" font-family="Times,serif" font-size="14.00">7</text>
</g>
<!-- fake&#45;&gt;7 -->
<g id="edge1" class="edge">
<title>fake&#45;&gt;7</title>
<path fill="none" stroke="black" stroke-width="2" d="M71,-953.81C71,-945.79 71,-936.04 71,-927.07"/>
<polygon fill="black" stroke="black" stroke-width="2" points="74.5,-927.03 71,-917.03 67.5,-927.03 74.5,-927.03"/>
</g>
<!-- 13 -->
<g id="node2" class="node">
<title>13</title>
<ellipse fill="none" stroke="black" cx="27" cy="-116" rx="27" ry="18"/>
<text text-anchor="middle" x="27" y="-112.3" font-family="Times,serif" font-size="14.00">13</text>
</g>
<!-- 12 -->
<g id="node6" class="node">
<title>12</title>
<ellipse fill="none" stroke="black" cx="27" cy="-203" rx="27" ry="18"/>
<text text-anchor="middle" x="27" y="-199.3" font-family="Times,serif" font-size="14.00">12</text>
</g>
<!-- 13&#45;&gt;12 -->
<g id="edge7" class="edge">
<title>13&#45;&gt;12</title>
<path fill="none" stroke="black" d="M27,-134.17C27,-145.8 27,-161.42 27,-174.73"/>
<polygon fill="black" stroke="black" points="23.5,-174.8 27,-184.8 30.5,-174.8 23.5,-174.8"/>
<text text-anchor="middle" x="32" y="-155.8" font-family="Times,serif" font-size="14.00">ε </text>
</g>
<!-- 14 -->
<g id="node10" class="node">
<title>14</title>
<ellipse fill="none" stroke="black" cx="55" cy="-23.5" rx="19.5" ry="19.5"/>
<ellipse fill="none" stroke="black" cx="55" cy="-23.5" rx="23.5" ry="23.5"/>
<text text-anchor="middle" x="55" y="-19.8" font-family="Times,serif" font-size="14.00">14</text>
</g>
<!-- 13&#45;&gt;14 -->
<g id="edge18" class="edge">
<title>13&#45;&gt;14</title>
<path fill="none" stroke="black" d="M32.27,-97.97C35.91,-86.19 40.87,-70.16 45.23,-56.07"/>
<polygon fill="black" stroke="black" points="48.66,-56.84 48.27,-46.25 41.97,-54.77 48.66,-56.84"/>
<text text-anchor="middle" x="45.5" y="-68.8" font-family="Times,serif" font-size="14.00">ε</text>
</g>
<!-- 3 -->
<g id="node3" class="node">
<title>3</title>
<ellipse fill="none" stroke="black" cx="94" cy="-725" rx="27" ry="18"/>
<text text-anchor="middle" x="94" y="-721.3" font-family="Times,serif" font-size="14.00">3</text>
</g>
<!-- 5 -->
<g id="node8" class="node">
<title>5</title>
<ellipse fill="none" stroke="black" cx="94" cy="-638" rx="27" ry="18"/>
<text text-anchor="middle" x="94" y="-634.3" font-family="Times,serif" font-size="14.00">5</text>
</g>
<!-- 3&#45;&gt;5 -->
<g id="edge2" class="edge">
<title>3&#45;&gt;5</title>
<path fill="none" stroke="black" d="M94,-706.8C94,-695.16 94,-679.54 94,-666.23"/>
<polygon fill="black" stroke="black" points="97.5,-666.17 94,-656.17 90.5,-666.17 97.5,-666.17"/>
<text text-anchor="middle" x="97.5" y="-677.8" font-family="Times,serif" font-size="14.00">a</text>
</g>
<!-- 4 -->
<g id="node4" class="node">
<title>4</title>
<ellipse fill="none" stroke="black" cx="166" cy="-638" rx="27" ry="18"/>
<text text-anchor="middle" x="166" y="-634.3" font-family="Times,serif" font-size="14.00">4</text>
</g>
<!-- 6 -->
<g id="node14" class="node">
<title>6</title>
<ellipse fill="none" stroke="black" cx="122" cy="-551" rx="27" ry="18"/>
<text text-anchor="middle" x="122" y="-547.3" font-family="Times,serif" font-size="14.00">6</text>
</g>
<!-- 4&#45;&gt;6 -->
<g id="edge13" class="edge">
<title>4&#45;&gt;6</title>
<path fill="none" stroke="black" d="M157.52,-620.61C151.19,-608.38 142.42,-591.44 135.18,-577.45"/>
<polygon fill="black" stroke="black" points="138.16,-575.61 130.46,-568.34 131.95,-578.82 138.16,-575.61"/>
<text text-anchor="middle" x="149.5" y="-590.8" font-family="Times,serif" font-size="14.00">ε</text>
</g>
<!-- 9 -->
<g id="node5" class="node">
<title>9</title>
<ellipse fill="none" stroke="black" cx="55" cy="-377" rx="27" ry="18"/>
<text text-anchor="middle" x="55" y="-373.3" font-family="Times,serif" font-size="14.00">9</text>
</g>
<!-- 10 -->
<g id="node7" class="node">
<title>10</title>
<ellipse fill="none" stroke="black" cx="55" cy="-290" rx="27" ry="18"/>
<text text-anchor="middle" x="55" y="-286.3" font-family="Times,serif" font-size="14.00">10</text>
</g>
<!-- 9&#45;&gt;10 -->
<g id="edge6" class="edge">
<title>9&#45;&gt;10</title>
<path fill="none" stroke="black" d="M55,-358.8C55,-347.16 55,-331.54 55,-318.23"/>
<polygon fill="black" stroke="black" points="58.5,-318.17 55,-308.17 51.5,-318.17 58.5,-318.17"/>
<text text-anchor="middle" x="58.5" y="-329.8" font-family="Times,serif" font-size="14.00">a</text>
</g>
<!-- 12&#45;&gt;13 -->
<g id="edge9" class="edge">
<title>12&#45;&gt;13</title>
<path fill="none" stroke="black" d="M20.57,-185.15C18.71,-179.47 16.93,-173.04 16,-167 14.81,-159.27 15.74,-150.94 17.47,-143.35"/>
<polygon fill="black" stroke="black" points="20.89,-144.14 20.21,-133.56 14.14,-142.25 20.89,-144.14"/>
<text text-anchor="middle" x="19.5" y="-155.8" font-family="Times,serif" font-size="14.00">b</text>
</g>
<!-- 10&#45;&gt;12 -->
<g id="edge10" class="edge">
<title>10&#45;&gt;12</title>
<path fill="none" stroke="black" d="M49.47,-272.2C45.56,-260.33 40.23,-244.16 35.75,-230.55"/>
<polygon fill="black" stroke="black" points="38.97,-229.16 32.52,-220.75 32.32,-231.35 38.97,-229.16"/>
<text text-anchor="middle" x="46.5" y="-242.8" font-family="Times,serif" font-size="14.00">ε</text>
</g>
<!-- 10&#45;&gt;14 -->
<g id="edge11" class="edge">
<title>10&#45;&gt;14</title>
<path fill="none" stroke="black" d="M57.56,-272C59.49,-258.27 61.98,-238.44 63,-221 66.2,-166.42 65.96,-152.58 63,-98 62.27,-84.58 60.8,-69.84 59.32,-57.11"/>
<polygon fill="black" stroke="black" points="62.77,-56.47 58.08,-46.96 55.82,-57.31 62.77,-56.47"/>
<text text-anchor="middle" x="71" y="-155.8" font-family="Times,serif" font-size="14.00">ε </text>
</g>
<!-- 5&#45;&gt;6 -->
<g id="edge15" class="edge">
<title>5&#45;&gt;6</title>
<path fill="none" stroke="black" d="M99.53,-620.2C103.44,-608.33 108.77,-592.16 113.25,-578.55"/>
<polygon fill="black" stroke="black" points="116.68,-579.35 116.48,-568.75 110.03,-577.16 116.68,-579.35"/>
<text text-anchor="middle" x="112.5" y="-590.8" font-family="Times,serif" font-size="14.00">ε</text>
</g>
<!-- 8 -->
<g id="node9" class="node">
<title>8</title>
<ellipse fill="none" stroke="black" cx="55" cy="-464" rx="27" ry="18"/>
<text text-anchor="middle" x="55" y="-460.3" font-family="Times,serif" font-size="14.00">8</text>
</g>
<!-- 8&#45;&gt;9 -->
<g id="edge3" class="edge">
<title>8&#45;&gt;9</title>
<path fill="none" stroke="black" d="M55,-445.8C55,-434.16 55,-418.54 55,-405.23"/>
<polygon fill="black" stroke="black" points="58.5,-405.17 55,-395.17 51.5,-405.17 58.5,-405.17"/>
<text text-anchor="middle" x="58.5" y="-416.8" font-family="Times,serif" font-size="14.00">b</text>
</g>
<!-- 2 -->
<g id="node11" class="node">
<title>2</title>
<ellipse fill="none" stroke="black" cx="166" cy="-725" rx="27" ry="18"/>
<text text-anchor="middle" x="166" y="-721.3" font-family="Times,serif" font-size="14.00">2</text>
</g>
<!-- 2&#45;&gt;4 -->
<g id="edge4" class="edge">
<title>2&#45;&gt;4</title>
<path fill="none" stroke="black" d="M166,-706.8C166,-695.16 166,-679.54 166,-666.23"/>
<polygon fill="black" stroke="black" points="169.5,-666.17 166,-656.17 162.5,-666.17 169.5,-666.17"/>
<text text-anchor="middle" x="169.5" y="-677.8" font-family="Times,serif" font-size="14.00">b</text>
</g>
<!-- 7&#45;&gt;8 -->
<g id="edge8" class="edge">
<title>7&#45;&gt;8</title>
<path fill="none" stroke="black" d="M61.05,-882.06C51.66,-865.46 39,-838.38 39,-813 39,-813 39,-813 39,-550 39,-530.29 43.21,-508.45 47.3,-491.84"/>
<polygon fill="black" stroke="black" points="50.8,-492.32 49.94,-481.76 44.02,-490.55 50.8,-492.32"/>
<text text-anchor="middle" x="44" y="-677.8" font-family="Times,serif" font-size="14.00">ε </text>
</g>
<!-- 1 -->
<g id="node13" class="node">
<title>1</title>
<ellipse fill="none" stroke="black" cx="120" cy="-812" rx="27" ry="18"/>
<text text-anchor="middle" x="120" y="-808.3" font-family="Times,serif" font-size="14.00">1</text>
</g>
<!-- 7&#45;&gt;1 -->
<g id="edge5" class="edge">
<title>7&#45;&gt;1</title>
<path fill="none" stroke="black" d="M80.22,-882.01C87.36,-869.62 97.38,-852.23 105.58,-838.01"/>
<polygon fill="black" stroke="black" points="108.7,-839.61 110.66,-829.2 102.63,-836.12 108.7,-839.61"/>
<text text-anchor="middle" x="101.5" y="-851.8" font-family="Times,serif" font-size="14.00">ε</text>
</g>
<!-- 1&#45;&gt;3 -->
<g id="edge14" class="edge">
<title>1&#45;&gt;3</title>
<path fill="none" stroke="black" d="M114.86,-794.2C111.23,-782.33 106.29,-766.16 102.12,-752.55"/>
<polygon fill="black" stroke="black" points="105.4,-751.29 99.13,-742.75 98.7,-753.34 105.4,-751.29"/>
<text text-anchor="middle" x="111.5" y="-764.8" font-family="Times,serif" font-size="14.00">ε</text>
</g>
<!-- 1&#45;&gt;2 -->
<g id="edge12" class="edge">
<title>1&#45;&gt;2</title>
<path fill="none" stroke="black" d="M128.87,-794.61C135.53,-782.3 144.77,-765.22 152.37,-751.18"/>
<polygon fill="black" stroke="black" points="155.63,-752.51 157.31,-742.05 149.48,-749.18 155.63,-752.51"/>
<text text-anchor="middle" x="150" y="-764.8" font-family="Times,serif" font-size="14.00">ε </text>
</g>
<!-- 6&#45;&gt;8 -->
<g id="edge16" class="edge">
<title>6&#45;&gt;8</title>
<path fill="none" stroke="black" d="M110.02,-534.8C99.89,-521.95 85.2,-503.32 73.55,-488.53"/>
<polygon fill="black" stroke="black" points="76.04,-486.03 67.1,-480.35 70.54,-490.37 76.04,-486.03"/>
<text text-anchor="middle" x="95.5" y="-503.8" font-family="Times,serif" font-size="14.00">ε</text>
</g>
<!-- 6&#45;&gt;1 -->
<g id="edge17" class="edge">
<title>6&#45;&gt;1</title>
<path fill="none" stroke="black" d="M142.88,-562.77C162.27,-574.08 189.91,-593.86 202,-620 224.95,-669.61 225.25,-693.52 202,-743 191.25,-765.87 168.62,-783.7 149.85,-795.35"/>
<polygon fill="black" stroke="black" points="147.84,-792.47 141.01,-800.57 151.4,-798.5 147.84,-792.47"/>
<text text-anchor="middle" x="224" y="-677.8" font-family="Times,serif" font-size="14.00">ε </text>
</g>
</g>
</svg>
