<?xml version="1.0" encoding="UTF-8" standalone="no"?>
<!DOCTYPE svg PUBLIC "-//W3C//DTD SVG 1.1//EN"
 "http://www.w3.org/Graphics/SVG/1.1/DTD/svg11.dtd">
<!-- Generated by graphviz version 3.0.0 (20220226.1711)
 -->
<!-- Pages: 1 -->
<svg width="158pt" height="647pt"
 viewBox="0.00 0.00 158.00 647.00" xmlns="http://www.w3.org/2000/svg" xmlns:xlink="http://www.w3.org/1999/xlink">
<g id="graph0" class="graph" transform="scale(1 1) rotate(0) translate(4 643)">
<polygon fill="white" stroke="transparent" points="-4,4 -4,-643 154,-643 154,4 -4,4"/>
<!-- fake -->
<g id="node1" class="node">
<title>fake</title>
</g>
<!-- 4 -->
<g id="node8" class="node">
<title>4</title>
<ellipse fill="none" stroke="black" cx="113" cy="-548" rx="27" ry="18"/>
<text text-anchor="middle" x="113" y="-544.3" font-family="Times,serif" font-size="14.00">4</text>
</g>
<!-- fake&#45;&gt;4 -->
<g id="edge1" class="edge">
<title>fake&#45;&gt;4</title>
<path fill="none" stroke="black" stroke-width="2" d="M113,-602.81C113,-594.79 113,-585.05 113,-576.07"/>
<polygon fill="black" stroke="black" stroke-width="2" points="116.5,-576.03 113,-566.03 109.5,-576.03 116.5,-576.03"/>
</g>
<!-- 1 -->
<g id="node2" class="node">
<title>1</title>
<ellipse fill="none" stroke="black" cx="85" cy="-461" rx="27" ry="18"/>
<text text-anchor="middle" x="85" y="-457.3" font-family="Times,serif" font-size="14.00">1</text>
</g>
<!-- 2 -->
<g id="node5" class="node">
<title>2</title>
<ellipse fill="none" stroke="black" cx="27" cy="-374" rx="27" ry="18"/>
<text text-anchor="middle" x="27" y="-370.3" font-family="Times,serif" font-size="14.00">2</text>
</g>
<!-- 1&#45;&gt;2 -->
<g id="edge5" class="edge">
<title>1&#45;&gt;2</title>
<path fill="none" stroke="black" d="M74.36,-444.41C65.75,-431.79 53.47,-413.79 43.57,-399.28"/>
<polygon fill="black" stroke="black" points="46.29,-397.07 37.77,-390.78 40.51,-401.01 46.29,-397.07"/>
<text text-anchor="middle" x="63.5" y="-413.8" font-family="Times,serif" font-size="14.00">a</text>
</g>
<!-- 3 -->
<g id="node3" class="node">
<title>3</title>
<ellipse fill="none" stroke="black" cx="85" cy="-287" rx="27" ry="18"/>
<text text-anchor="middle" x="85" y="-283.3" font-family="Times,serif" font-size="14.00">3</text>
</g>
<!-- 3&#45;&gt;1 -->
<g id="edge4" class="edge">
<title>3&#45;&gt;1</title>
<path fill="none" stroke="black" d="M85,-305.05C85,-334.88 85,-396.76 85,-432.64"/>
<polygon fill="black" stroke="black" points="81.5,-432.88 85,-442.88 88.5,-432.88 81.5,-432.88"/>
<text text-anchor="middle" x="90" y="-370.3" font-family="Times,serif" font-size="14.00">ε </text>
</g>
<!-- 5 -->
<g id="node7" class="node">
<title>5</title>
<ellipse fill="none" stroke="black" cx="113" cy="-200" rx="27" ry="18"/>
<text text-anchor="middle" x="113" y="-196.3" font-family="Times,serif" font-size="14.00">5</text>
</g>
<!-- 3&#45;&gt;5 -->
<g id="edge2" class="edge">
<title>3&#45;&gt;5</title>
<path fill="none" stroke="black" d="M90.53,-269.21C94.44,-257.33 99.77,-241.17 104.25,-227.56"/>
<polygon fill="black" stroke="black" points="107.68,-228.35 107.48,-217.76 101.03,-226.16 107.68,-228.35"/>
<text text-anchor="middle" x="103.5" y="-239.8" font-family="Times,serif" font-size="14.00">ε</text>
</g>
<!-- 7 -->
<g id="node4" class="node">
<title>7</title>
<ellipse fill="none" stroke="black" cx="113" cy="-113" rx="27" ry="18"/>
<text text-anchor="middle" x="113" y="-109.3" font-family="Times,serif" font-size="14.00">7</text>
</g>
<!-- 8 -->
<g id="node6" class="node">
<title>8</title>
<ellipse fill="none" stroke="black" cx="113" cy="-22" rx="18" ry="18"/>
<ellipse fill="none" stroke="black" cx="113" cy="-22" rx="22" ry="22"/>
<text text-anchor="middle" x="113" y="-18.3" font-family="Times,serif" font-size="14.00">8</text>
</g>
<!-- 7&#45;&gt;8 -->
<g id="edge3" class="edge">
<title>7&#45;&gt;8</title>
<path fill="none" stroke="black" d="M113,-94.84C113,-83.44 113,-68.13 113,-54.58"/>
<polygon fill="black" stroke="black" points="116.5,-54.19 113,-44.19 109.5,-54.19 116.5,-54.19"/>
<text text-anchor="middle" x="116.5" y="-65.8" font-family="Times,serif" font-size="14.00">b</text>
</g>
<!-- 2&#45;&gt;3 -->
<g id="edge7" class="edge">
<title>2&#45;&gt;3</title>
<path fill="none" stroke="black" d="M37.64,-357.41C46.25,-344.79 58.53,-326.79 68.43,-312.28"/>
<polygon fill="black" stroke="black" points="71.49,-314.01 74.23,-303.78 65.71,-310.07 71.49,-314.01"/>
<text text-anchor="middle" x="63.5" y="-326.8" font-family="Times,serif" font-size="14.00">b</text>
</g>
<!-- 5&#45;&gt;7 -->
<g id="edge8" class="edge">
<title>5&#45;&gt;7</title>
<path fill="none" stroke="black" d="M113,-181.8C113,-170.16 113,-154.55 113,-141.24"/>
<polygon fill="black" stroke="black" points="116.5,-141.18 113,-131.18 109.5,-141.18 116.5,-141.18"/>
<text text-anchor="middle" x="116.5" y="-152.8" font-family="Times,serif" font-size="14.00">a</text>
</g>
<!-- 4&#45;&gt;1 -->
<g id="edge6" class="edge">
<title>4&#45;&gt;1</title>
<path fill="none" stroke="black" d="M107.47,-530.21C103.56,-518.33 98.23,-502.17 93.75,-488.56"/>
<polygon fill="black" stroke="black" points="96.97,-487.16 90.52,-478.76 90.32,-489.35 96.97,-487.16"/>
<text text-anchor="middle" x="103.5" y="-500.8" font-family="Times,serif" font-size="14.00">ε</text>
</g>
<!-- 4&#45;&gt;5 -->
<g id="edge9" class="edge">
<title>4&#45;&gt;5</title>
<path fill="none" stroke="black" d="M121.39,-530.87C129.32,-514.12 140,-486.93 140,-462 140,-462 140,-462 140,-286 140,-265.36 132.68,-243.16 125.66,-226.63"/>
<polygon fill="black" stroke="black" points="128.68,-224.82 121.39,-217.13 122.3,-227.69 128.68,-224.82"/>
<text text-anchor="middle" x="145" y="-370.3" font-family="Times,serif" font-size="14.00">ε </text>
</g>
</g>
</svg>
