<?xml version="1.0" encoding="UTF-8" standalone="no"?>
<!DOCTYPE svg PUBLIC "-//W3C//DTD SVG 1.1//EN"
 "http://www.w3.org/Graphics/SVG/1.1/DTD/svg11.dtd">
<!-- Generated by graphviz version 3.0.0 (20220226.1711)
 -->
<!-- Pages: 1 -->
<svg width="134pt" height="581pt"
 viewBox="0.00 0.00 134.00 581.00" xmlns="http://www.w3.org/2000/svg" xmlns:xlink="http://www.w3.org/1999/xlink">
<g id="graph0" class="graph" transform="scale(1 1) rotate(0) translate(4 577)">
<polygon fill="white" stroke="transparent" points="-4,4 -4,-577 130,-577 130,4 -4,4"/>
<!-- fake -->
<g id="node1" class="node">
<title>fake</title>
</g>
<!-- 5 -->
<g id="node8" class="node">
<title>5</title>
<ellipse fill="none" stroke="black" cx="63" cy="-482" rx="27" ry="18"/>
<text text-anchor="middle" x="63" y="-478.3" font-family="Times,serif" font-size="14.00">5</text>
</g>
<!-- fake&#45;&gt;5 -->
<g id="edge1" class="edge">
<title>fake&#45;&gt;5</title>
<path fill="none" stroke="black" stroke-width="2" d="M63,-536.81C63,-528.79 63,-519.05 63,-510.07"/>
<polygon fill="black" stroke="black" stroke-width="2" points="66.5,-510.03 63,-500.03 59.5,-510.03 66.5,-510.03"/>
</g>
<!-- 4 -->
<g id="node2" class="node">
<title>4</title>
<ellipse fill="none" stroke="black" cx="90" cy="-113" rx="27" ry="18"/>
<text text-anchor="middle" x="90" y="-109.3" font-family="Times,serif" font-size="14.00">4</text>
</g>
<!-- 8 -->
<g id="node7" class="node">
<title>8</title>
<ellipse fill="none" stroke="black" cx="51" cy="-22" rx="18" ry="18"/>
<ellipse fill="none" stroke="black" cx="51" cy="-22" rx="22" ry="22"/>
<text text-anchor="middle" x="51" y="-18.3" font-family="Times,serif" font-size="14.00">8</text>
</g>
<!-- 4&#45;&gt;8 -->
<g id="edge4" class="edge">
<title>4&#45;&gt;8</title>
<path fill="none" stroke="black" d="M82.66,-95.26C77.32,-83.07 69.95,-66.25 63.67,-51.9"/>
<polygon fill="black" stroke="black" points="66.74,-50.21 59.52,-42.45 60.33,-53.02 66.74,-50.21"/>
<text text-anchor="middle" x="76.5" y="-65.8" font-family="Times,serif" font-size="14.00">ε</text>
</g>
<!-- 2 -->
<g id="node3" class="node">
<title>2</title>
<ellipse fill="none" stroke="black" cx="94" cy="-308" rx="27" ry="18"/>
<text text-anchor="middle" x="94" y="-304.3" font-family="Times,serif" font-size="14.00">2</text>
</g>
<!-- 3 -->
<g id="node4" class="node">
<title>3</title>
<ellipse fill="none" stroke="black" cx="90" cy="-200" rx="27" ry="18"/>
<text text-anchor="middle" x="90" y="-196.3" font-family="Times,serif" font-size="14.00">3</text>
</g>
<!-- 2&#45;&gt;3 -->
<g id="edge9" class="edge">
<title>2&#45;&gt;3</title>
<path fill="none" stroke="black" d="M93.36,-289.97C92.73,-273.38 91.77,-247.88 91.04,-228.43"/>
<polygon fill="black" stroke="black" points="94.53,-228.2 90.65,-218.34 87.53,-228.47 94.53,-228.2"/>
<text text-anchor="middle" x="95.5" y="-250.3" font-family="Times,serif" font-size="14.00">b</text>
</g>
<!-- 3&#45;&gt;4 -->
<g id="edge8" class="edge">
<title>3&#45;&gt;4</title>
<path fill="none" stroke="black" d="M90,-181.8C90,-170.16 90,-154.55 90,-141.24"/>
<polygon fill="black" stroke="black" points="93.5,-141.18 90,-131.18 86.5,-141.18 93.5,-141.18"/>
<text text-anchor="middle" x="93.5" y="-152.8" font-family="Times,serif" font-size="14.00">b</text>
</g>
<!-- 7 -->
<g id="node5" class="node">
<title>7</title>
<ellipse fill="none" stroke="black" cx="35" cy="-254" rx="27" ry="18"/>
<text text-anchor="middle" x="35" y="-250.3" font-family="Times,serif" font-size="14.00">7</text>
</g>
<!-- 7&#45;&gt;8 -->
<g id="edge6" class="edge">
<title>7&#45;&gt;8</title>
<path fill="none" stroke="black" d="M36.2,-235.71C38.89,-197.07 45.42,-103.26 48.83,-54.15"/>
<polygon fill="black" stroke="black" points="52.33,-54.31 49.53,-44.1 45.35,-53.83 52.33,-54.31"/>
<text text-anchor="middle" x="46.5" y="-152.8" font-family="Times,serif" font-size="14.00">ε</text>
</g>
<!-- 6 -->
<g id="node6" class="node">
<title>6</title>
<ellipse fill="none" stroke="black" cx="27" cy="-395" rx="27" ry="18"/>
<text text-anchor="middle" x="27" y="-391.3" font-family="Times,serif" font-size="14.00">6</text>
</g>
<!-- 6&#45;&gt;7 -->
<g id="edge2" class="edge">
<title>6&#45;&gt;7</title>
<path fill="none" stroke="black" d="M27.98,-376.96C29.34,-353.4 31.8,-310.64 33.42,-282.53"/>
<polygon fill="black" stroke="black" points="36.93,-282.37 34.01,-272.18 29.94,-281.97 36.93,-282.37"/>
<text text-anchor="middle" x="33.5" y="-347.8" font-family="Times,serif" font-size="14.00">a</text>
</g>
<!-- 5&#45;&gt;6 -->
<g id="edge5" class="edge">
<title>5&#45;&gt;6</title>
<path fill="none" stroke="black" d="M55.89,-464.21C50.78,-452.14 43.79,-435.64 37.97,-421.89"/>
<polygon fill="black" stroke="black" points="41.1,-420.31 33.98,-412.47 34.65,-423.04 41.1,-420.31"/>
<text text-anchor="middle" x="53" y="-434.8" font-family="Times,serif" font-size="14.00">ε </text>
</g>
<!-- 1 -->
<g id="node9" class="node">
<title>1</title>
<ellipse fill="none" stroke="black" cx="99" cy="-395" rx="27" ry="18"/>
<text text-anchor="middle" x="99" y="-391.3" font-family="Times,serif" font-size="14.00">1</text>
</g>
<!-- 5&#45;&gt;1 -->
<g id="edge3" class="edge">
<title>5&#45;&gt;1</title>
<path fill="none" stroke="black" d="M70.11,-464.21C75.22,-452.14 82.21,-435.64 88.03,-421.89"/>
<polygon fill="black" stroke="black" points="91.35,-423.04 92.02,-412.47 84.9,-420.31 91.35,-423.04"/>
<text text-anchor="middle" x="86.5" y="-434.8" font-family="Times,serif" font-size="14.00">ε</text>
</g>
<!-- 1&#45;&gt;2 -->
<g id="edge7" class="edge">
<title>1&#45;&gt;2</title>
<path fill="none" stroke="black" d="M97.99,-376.8C97.3,-365.16 96.39,-349.55 95.6,-336.24"/>
<polygon fill="black" stroke="black" points="99.09,-335.95 95.01,-326.18 92.1,-336.36 99.09,-335.95"/>
<text text-anchor="middle" x="99.5" y="-347.8" font-family="Times,serif" font-size="14.00">a</text>
</g>
</g>
</svg>
